<?xml version="1.0" encoding="UTF-8"?>
<svg width="24px" height="24px" viewBox="0 0 24 24" version="1.1" xmlns="http://www.w3.org/2000/svg" xmlns:xlink="http://www.w3.org/1999/xlink">
    <!-- Generator: Sketch 59.1 (86144) - https://sketch.com -->
    <title>AR History</title>
    <desc>Created with Sketch.</desc>
    <g id="group" stroke="none" stroke-width="1" fill="none" fill-rule="evenodd">
        <g id="file" transform="translate(-78.000000, -456.000000)" fill="#7E8EA8">
            <path d="M100.5,477 C100.5,477.827 99.827,478.5 99,478.5 L80.857,478.5 C80.109,478.5 79.5,477.891 79.5,477.143 L79.5,458.857 C79.5,458.109 80.109,457.5 80.857,457.5 L86.146,457.5 C86.718,457.5 87.231,457.817 87.487,458.329 L89.829,463.013 C90.597,464.547 92.139,465.5 93.854,465.5 L99.143,465.5 C99.891,465.5 100.5,466.109 100.5,466.857 L100.5,477 Z M97,459.5 C97.827,459.5 98.5,460.173 98.5,461 L98.5,464 L93.854,464 C92.718,464 91.679,463.358 91.171,462.342 L89.75,459.5 L97,459.5 Z M100,464.146 L100,461 C100,459.343 98.657,458 97,458 L89,458 L88.829,457.658 C88.321,456.642 87.282,456 86.146,456 L80.857,456 C79.279,456 78,457.279 78,458.857 L78,477.143 C78,478.721 79.279,480 80.857,480 L99,480 C100.657,480 102,478.657 102,477 L102,466.857 C102,465.58 101.156,464.512 100,464.146 L100,464.146 Z M90,466.7529 C92.762,466.7529 95,468.9909 95,471.7529 C95,474.5149 92.762,476.7529 90,476.7529 C87.238,476.7529 85,474.5149 85,471.7529 C85,468.9909 87.238,466.7529 90,466.7529 Z M90,468.0529 C87.96,468.0529 86.3,469.7119 86.3,471.7529 C86.3,473.7929 87.96,475.4529 90,475.4529 C92.04,475.4529 93.7,473.7929 93.7,471.7529 C93.7,469.7119 92.04,468.0529 90,468.0529 Z M90.0004,469.0028 C90.3304,469.0028 90.5994,469.2728 90.5994,469.6028 L90.5994,469.6028 L90.5994,471.1528 L92.1504,471.1528 C92.4804,471.1528 92.7504,471.4228 92.7504,471.7528 C92.7504,472.0828 92.4804,472.3528 92.1504,472.3528 L92.1504,472.3528 L90.5994,472.3528 L90.5994,472.4008 C90.5994,472.7308 90.3304,472.9998 90.0004,472.9998 C89.6704,472.9998 89.4004,472.7308 89.4004,472.4008 L89.4004,472.4008 L89.4004,472.3528 L89.3484,472.3528 C89.0184,472.3528 88.7484,472.0828 88.7484,471.7528 C88.7484,471.4228 89.0184,471.1528 89.3484,471.1528 L89.3484,471.1528 L89.4004,471.1528 L89.4004,469.6028 C89.4004,469.2728 89.6704,469.0028 90.0004,469.0028 Z" id="AR-History"></path>
        </g>
    </g>
</svg>