<?xml version="1.0" encoding="UTF-8"?>
<svg width="24px" height="24px" viewBox="0 0 24 24" version="1.1" xmlns="http://www.w3.org/2000/svg" xmlns:xlink="http://www.w3.org/1999/xlink">
    <!-- Generator: Sketch 59.1 (86144) - https://sketch.com -->
    <title>Fill 3</title>
    <desc>Created with Sketch.</desc>
    <g id="group" stroke="none" stroke-width="1" fill="none" fill-rule="evenodd">
        <g id="arhistory" transform="translate(-78.000000, -457.000000)" fill="#0F8DFF">
            <path d="M90,477.7529 C87.238,477.7529 85,475.5149 85,472.7529 C85,469.9909 87.238,467.7529 90,467.7529 C92.762,467.7529 95,469.9909 95,472.7529 C95,475.5149 92.762,477.7529 90,477.7529 M86.146,456.9999 C87.282,456.9999 88.321,457.6419 88.829,458.6579 L88.829,458.6579 L89,458.9999 L91.171,463.3419 C91.171,463.3419 91.853,464.9999 93.854,464.9999 L93.854,464.9999 L99.127,464.9999 C99.158,465.0019 99.523,465.0239 100,465.1459 C101.156,465.5119 102,466.5799 102,467.8569 L102,467.8569 L102,477.9999 C102,479.6569 100.657,480.9999 99,480.9999 L99,480.9999 L80.857,480.9999 C79.279,480.9999 78,479.7209 78,478.1429 L78,478.1429 L78,459.8569 C78,458.2789 79.279,456.9999 80.857,456.9999 L80.857,456.9999 Z M97.0001,458.9997 C98.6571,458.9997 100.0001,460.3427 100.0001,461.9997 L100.0001,461.9997 L100.0001,463.4997 L93.8531,463.4997 C92.9481,463.4997 92.6041,462.8677 92.5581,462.7717 L92.5581,462.7717 L92.5371,462.7207 L92.5131,462.6717 L90.6771,458.9997 Z M92.1504,473.3525 L90.5994,473.3525 L90.5994,473.4005 C90.5994,473.7305 90.3304,473.9995 90.0004,473.9995 C89.6704,473.9995 89.4004,473.7305 89.4004,473.4005 L89.4004,473.3525 L89.3484,473.3525 C89.0184,473.3525 88.7484,473.0825 88.7484,472.7525 C88.7484,472.4225 89.0184,472.1525 89.3484,472.1525 L89.4004,472.1525 L89.4004,470.6025 C89.4004,470.2725 89.6704,470.0025 90.0004,470.0025 C90.3304,470.0025 90.5994,470.2725 90.5994,470.6025 L90.5994,472.1525 L92.1504,472.1525 C92.4804,472.1525 92.7504,472.4225 92.7504,472.7525 C92.7504,473.0825 92.4804,473.3525 92.1504,473.3525 M90.0004,469.0525 C87.9604,469.0525 86.2994,470.7115 86.2994,472.7525 C86.2994,474.7925 87.9604,476.4535 90.0004,476.4535 C92.0404,476.4535 93.7004,474.7925 93.7004,472.7525 C93.7004,470.7115 92.0404,469.0525 90.0004,469.0525" id="Fill-3"></path>
        </g>
    </g>
</svg>