<?xml version="1.0" encoding="UTF-8"?>
<svg width="24px" height="24px" viewBox="0 0 24 24" version="1.1" xmlns="http://www.w3.org/2000/svg" xmlns:xlink="http://www.w3.org/1999/xlink">
    <!-- Generator: Sketch 59.1 (86144) - https://sketch.com -->
    <title>Bills</title>
    <desc>Created with Sketch.</desc>
    <g id="page-1" stroke="none" stroke-width="1" fill="none" fill-rule="evenodd">
        <g id="domain" transform="translate(-78.000000, -446.000000)" fill="#7E8EA8">
            <g id="nav">
                <path d="M100.5,467.053 C100.5,467.851 99.851,468.5 99.053,468.5 L96,468.5 L96,457.5 L99.053,457.5 C99.851,457.5 100.5,458.15 100.5,458.948 L100.5,467.053 Z M94.5,468.5 L81,468.5 C80.173,468.5 79.5,467.827 79.5,467 L79.5,449 C79.5,448.173 80.173,447.5 81,447.5 L93,447.5 C93.827,447.5 94.5,448.173 94.5,449 L94.5,456 L94.5,468.5 Z M99.053,456 L96,456 L96,449 C96,447.35 94.65,446 93,446 L81,446 C79.35,446 78,447.35 78,449 L78,467 C78,468.651 79.35,470 81,470 L94.5,470 L96,470 L99.053,470 C100.674,470 102,468.674 102,467.053 L102,458.948 C102,457.326 100.674,456 99.053,456 L99.053,456 Z M91.25,451.7503 L82.75,451.7503 C82.338,451.7503 82,452.0873 82,452.5003 C82,452.9133 82.338,453.2503 82.75,453.2503 L91.25,453.2503 C91.662,453.2503 92,452.9133 92,452.5003 C92,452.0873 91.662,451.7503 91.25,451.7503 M91.25,456.6985 L82.75,456.6985 C82.338,456.6985 82,457.0365 82,457.4485 C82,457.8615 82.338,458.1985 82.75,458.1985 L91.25,458.1985 C91.662,458.1985 92,457.8615 92,457.4485 C92,457.0365 91.662,456.6985 91.25,456.6985 M87.25,461.6985 L82.75,461.6985 C82.338,461.6985 82,462.0365 82,462.4485 C82,462.8615 82.338,463.1985 82.75,463.1985 L87.25,463.1985 C87.662,463.1985 88,462.8615 88,462.4485 C88,462.0365 87.662,461.6985 87.25,461.6985" id="Bills"></path>
            </g>
        </g>
    </g>
</svg>