<?xml version="1.0" encoding="UTF-8"?>
<svg width="24px" height="24px" viewBox="0 0 24 24" version="1.1" xmlns="http://www.w3.org/2000/svg" xmlns:xlink="http://www.w3.org/1999/xlink">
    <!-- Generator: Sketch 59.1 (86144) - https://sketch.com -->
    <title>Fill 6</title>
    <desc>Created with Sketch.</desc>
    <g id="page-1" stroke="none" stroke-width="1" fill="none" fill-rule="evenodd">
        <g id="setting" transform="translate(-78.000000, -446.000000)" fill="#0F8DFF">
            <g id="nav">
                <path d="M99.0527,456 C100.6737,456 101.9997,457.326 101.9997,458.946 L101.9997,458.946 L101.9997,467.053 C101.9997,468.674 100.6737,470 99.0527,470 L99.0527,470 L97.4997,470 L97.4997,456 Z M93,446 C94.65,446 96,447.35 96,449 L96,449 L96,470 L81,470 C79.35,470 78,468.649 78,467 L78,467 L78,449 C78,447.35 79.35,446 81,446 L81,446 Z M87.25,461.698 L82.75,461.698 C82.338,461.698 82,462.036 82,462.448 C82,462.86 82.338,463.198 82.75,463.198 L82.75,463.198 L87.25,463.198 C87.662,463.198 88,462.86 88,462.448 C88,462.036 87.662,461.698 87.25,461.698 L87.25,461.698 Z M91.25,456.698 L82.75,456.698 C82.338,456.698 82,457.036 82,457.448 C82,457.86 82.338,458.198 82.75,458.198 L82.75,458.198 L91.25,458.198 C91.662,458.198 92,457.86 92,457.448 C92,457.036 91.662,456.698 91.25,456.698 L91.25,456.698 Z M91.25,451.75 L82.75,451.75 C82.338,451.75 82,452.087 82,452.5 C82,452.912 82.338,453.25 82.75,453.25 L82.75,453.25 L91.25,453.25 C91.662,453.25 92,452.912 92,452.5 C92,452.087 91.662,451.75 91.25,451.75 L91.25,451.75 Z" id="Fill-6"></path>
            </g>
        </g>
    </g>
</svg>