<?xml version="1.0" encoding="UTF-8"?>
<svg width="24px" height="24px" viewBox="0 0 24 24" version="1.1" xmlns="http://www.w3.org/2000/svg" xmlns:xlink="http://www.w3.org/1999/xlink">
    <!-- Generator: Sketch 59.1 (86144) - https://sketch.com -->
    <title>Fill 20</title>
    <desc>Created with Sketch.</desc>
    <g id="page-1" stroke="none" stroke-width="1" fill="none" fill-rule="evenodd">
        <g id="domain" transform="translate(-78.000000, -376.000000)" fill="#0F8DFF">
            <g id="nav">
                <path d="M102.0002,392.501 C101.9992,396.642 98.6412,400 94.5002,400 C95.7632,400 96.8422,398.046 97.2842,395.284 C100.0462,394.842 101.9992,393.763 102.0002,392.501 Z M93,375.9999 C94.649,375.9999 96,377.3499 96,378.9999 L96,378.9999 L96,384.1399 C95.512,384.0529 95.013,383.9999 94.5,383.9999 C89.806,383.9999 86,387.8059 86,392.4999 C86,395.7489 87.823,398.5689 90.502,399.9999 L90.502,399.9999 L81,399.9999 C79.35,399.9999 78,398.6499 78,396.9999 L78,396.9999 L78,378.9999 C78,377.3499 79.35,375.9999 81,375.9999 L81,375.9999 Z M86.9999,392.5 C86.9999,393.763 88.9529,394.842 91.7159,395.284 C92.1579,398.046 93.2369,400 94.4999,400 C90.3579,400 86.9999,396.642 86.9999,392.5 Z M95.725,395.4569 C95.39,397.1679 94.83,398.2019 94.5,398.4629 C94.169,398.2019 93.609,397.1679 93.275,395.4569 C93.675,395.4829 94.082,395.4999 94.5,395.4999 C94.918,395.4999 95.325,395.4829 95.725,395.4569 Z M94.4996,390.9994 C95.0126,390.9994 95.4856,391.0264 95.9356,391.0644 C95.9736,391.5144 95.9996,391.9864 95.9996,392.4994 C95.9996,393.0134 95.9736,393.4854 95.9356,393.9354 C95.4856,393.9734 95.0126,393.9994 94.4996,393.9994 C93.9866,393.9994 93.5146,393.9734 93.0646,393.9354 C93.0266,393.4854 92.9996,393.0134 92.9996,392.4994 C92.9996,391.9864 93.0266,391.5144 93.0646,391.0644 C93.5146,391.0264 93.9866,390.9994 94.4996,390.9994 Z M97.4559,391.2749 C99.1679,391.6099 100.2019,392.1689 100.4619,392.4999 C100.2019,392.8309 99.1679,393.3909 97.4559,393.7249 C97.4829,393.3249 97.4999,392.9179 97.4999,392.4999 C97.4999,392.0819 97.4829,391.6749 97.4559,391.2749 Z M91.5431,391.2749 C91.5161,391.6749 91.5001,392.0819 91.5001,392.4999 C91.5001,392.9179 91.5161,393.3249 91.5431,393.7249 C89.8311,393.3909 88.7981,392.8309 88.5371,392.4999 C88.7981,392.1689 89.8311,391.6099 91.5431,391.2749 Z M94.4999,385 C93.2369,385 92.1579,386.953 91.7159,389.716 C88.9529,390.158 86.9999,391.237 86.9999,392.5 L86.9999,392.5 L87.0037537,392.257277 C87.1318877,388.227605 90.4391157,385 94.4999,385 Z M94.5002,384.9997 C98.6412,384.9997 101.9992,388.3577 102.0002,392.4997 C101.9992,391.2367 100.0462,390.1577 97.2842,389.7157 C96.8422,386.9537 95.7632,384.9997 94.5002,384.9997 Z M94.5,386.5379 C94.83,386.7979 95.39,387.8319 95.725,389.5429 C95.325,389.5169 94.918,389.4999 94.5,389.4999 C94.082,389.4999 93.675,389.5169 93.275,389.5429 C93.609,387.8319 94.169,386.7979 94.5,386.5379 Z M87.25,384.6259 L82.75,384.6259 C82.337,384.6259 82,384.9639 82,385.3759 C82,385.7889 82.337,386.1259 82.75,386.1259 L82.75,386.1259 L87.25,386.1259 C87.662,386.1259 88,385.7889 88,385.3759 C88,384.9639 87.662,384.6259 87.25,384.6259 L87.25,384.6259 Z M90.25,380.4999 L82.75,380.4999 C82.337,380.4999 82,380.8379 82,381.2499 C82,381.6629 82.337,381.9999 82.75,381.9999 L82.75,381.9999 L90.25,381.9999 C90.662,381.9999 91,381.6629 91,381.2499 C91,380.8379 90.662,380.4999 90.25,380.4999 L90.25,380.4999 Z" id="Fill-20"></path>
            </g>
        </g>
    </g>
</svg>