<?xml version="1.0" encoding="UTF-8"?>
<svg width="24px" height="24px" viewBox="0 0 24 24" version="1.1" xmlns="http://www.w3.org/2000/svg" xmlns:xlink="http://www.w3.org/1999/xlink">
    <!-- Generator: Sketch 59.1 (86144) - https://sketch.com -->
    <title>Docs</title>
    <desc>Created with Sketch.</desc>
    <g id="page-1" stroke="none" stroke-width="1" fill="none" fill-rule="evenodd">
        <g id="file" transform="translate(-78.000000, -515.000000)" fill="#7E8EA8">
            <g id="nav">
                <path d="M100.5,536 C100.5,536.827 99.827,537.5 99,537.5 L80.857,537.5 C80.109,537.5 79.5,536.891 79.5,536.143 L79.5,517.857 C79.5,517.109 80.109,516.5 80.857,516.5 L86.146,516.5 C86.718,516.5 87.231,516.817 87.487,517.329 L89.829,522.013 C90.597,523.547 92.139,524.5 93.854,524.5 L99.143,524.5 C99.891,524.5 100.5,525.109 100.5,525.857 L100.5,536 Z M97,518.5 C97.827,518.5 98.5,519.173 98.5,520 L98.5,523 L93.854,523 C92.718,523 91.679,522.358 91.171,521.342 L89.75,518.5 L97,518.5 Z M100,523.146 L100,520 C100,518.343 98.657,517 97,517 L89,517 L88.829,516.658 C88.321,515.642 87.282,515 86.146,515 L80.857,515 C79.279,515 78,516.279 78,517.857 L78,536.143 C78,537.721 79.279,539 80.857,539 L99,539 C100.657,539 102,537.657 102,536 L102,525.857 C102,524.58 101.156,523.512 100,523.146 L100,523.146 Z M96.5,534.0996 L84,534.0996 C83.588,534.0996 83.25,533.7616 83.25,533.3496 C83.25,532.9366 83.588,532.5996 84,532.5996 L96.5,532.5996 C96.912,532.5996 97.25,532.9366 97.25,533.3496 C97.25,533.7616 96.912,534.0996 96.5,534.0996 M90.5,530.5 L84,530.5 C83.588,530.5 83.25,530.162 83.25,529.75 C83.25,529.338 83.588,529 84,529 L90.5,529 C90.912,529 91.25,529.338 91.25,529.75 C91.25,530.162 90.912,530.5 90.5,530.5" id="Docs"></path>
            </g>
        </g>
    </g>
</svg>