<?xml version="1.0" encoding="UTF-8"?>
<svg width="24px" height="24px" viewBox="0 0 24 24" version="1.1" xmlns="http://www.w3.org/2000/svg" xmlns:xlink="http://www.w3.org/1999/xlink">
    <!-- Generator: Sketch 59.1 (86144) - https://sketch.com -->
    <title>Domain</title>
    <desc>Created with Sketch.</desc>
    <g id="page-1" stroke="none" stroke-width="1" fill="none" fill-rule="evenodd">
        <g id="setting" transform="translate(-78.000000, -376.000000)" fill="#7E8EA8">
            <g id="nav">
                <path d="M96.4629,398.1636 C96.8209,397.3866 97.1049,396.4036 97.2839,395.2846 C98.4029,395.1046 99.3869,394.8216 100.1639,394.4626 C99.5629,396.1926 98.1919,397.5616 96.4629,398.1636 M88.8359,394.4626 C89.6129,394.8216 90.5969,395.1046 91.7159,395.2846 C91.8959,396.4036 92.1789,397.3866 92.5369,398.1636 C90.8079,397.5616 89.4379,396.1926 88.8359,394.4626 M92.5369,386.8366 C92.1789,387.6136 91.8959,388.5966 91.7159,389.7156 C90.5969,389.8946 89.6129,390.1786 88.8359,390.5376 C89.4379,388.8076 90.8079,387.4376 92.5369,386.8366 M100.1639,390.5376 C99.3869,390.1786 98.4029,389.8946 97.2839,389.7156 C97.1049,388.5966 96.8209,387.6136 96.4629,386.8366 C98.1919,387.4376 99.5629,388.8076 100.1639,390.5376 M97.4569,391.2756 C99.1679,391.6096 100.2019,392.1696 100.4629,392.4996 C100.2019,392.8306 99.1679,393.3906 97.4569,393.7246 C97.4829,393.3256 97.4999,392.9176 97.4999,392.4996 C97.4999,392.0816 97.4829,391.6746 97.4569,391.2756 M95.7249,389.5436 C95.3249,389.5176 94.9179,389.4996 94.4999,389.4996 C94.0819,389.4996 93.6749,389.5176 93.2749,389.5436 C93.6089,387.8316 94.1699,386.7976 94.4999,386.5376 C94.8299,386.7976 95.3909,387.8316 95.7249,389.5436 M91.5429,393.7246 C89.8319,393.3906 88.7979,392.8306 88.5369,392.4996 C88.7979,392.1696 89.8319,391.6096 91.5429,391.2756 C91.5179,391.6746 91.4999,392.0816 91.4999,392.4996 C91.4999,392.9176 91.5179,393.3256 91.5429,393.7246 M94.4999,393.9996 C93.9869,393.9996 93.5149,393.9736 93.0649,393.9356 C93.0259,393.4856 92.9999,393.0136 92.9999,392.4996 C92.9999,391.9866 93.0259,391.5146 93.0649,391.0646 C93.5149,391.0266 93.9869,390.9996 94.4999,390.9996 C95.0129,390.9996 95.4849,391.0266 95.9359,391.0646 C95.9739,391.5146 95.9999,391.9866 95.9999,392.4996 C95.9999,393.0136 95.9739,393.4856 95.9359,393.9356 C95.4849,393.9736 95.0129,393.9996 94.4999,393.9996 M93.2749,395.4566 C93.6749,395.4826 94.0819,395.4996 94.4999,395.4996 C94.9179,395.4996 95.3249,395.4826 95.7249,395.4566 C95.3909,397.1676 94.8299,398.2026 94.4999,398.4626 C94.1699,398.2026 93.6089,397.1676 93.2749,395.4566 M81,376 L93,376 C94.5910714,376 95.9031888,377.255293 95.994882,378.82441 L96,379 L96,382.25 C96,382.664 95.664,383 95.25,383 C94.8705,383 94.5565417,382.717667 94.5068507,382.351726 L94.5,382.25 L94.5,379 C94.5,378.219765 93.9047336,377.579488 93.1443932,377.506861 L93,377.5 L81,377.5 C80.2207059,377.5 79.5795986,378.094381 79.5068708,378.85545 L79.5,379 L79.5,397 C79.5,397.780235 80.0952664,398.420512 80.8556068,398.493139 L81,398.5 L86.25,398.5 C86.664,398.5 87,398.836 87,399.25 C87,399.6295 86.7176667,399.943458 86.3517257,399.993149 L86.25,400 L81,400 C79.4089286,400 78.0968112,398.744707 78.005118,397.17559 L78,397 L78,379 C78,377.408929 79.2552934,376.096811 80.8244101,376.005118 L81,376 L93,376 Z M94.4999,384.9996 C98.6429,384.9996 101.9999,388.3576 101.9999,392.4996 C101.9999,396.6426 98.6429,399.9996 94.4999,399.9996 C90.3579,399.9996 86.9999,396.6426 86.9999,392.4996 C86.9999,388.3576 90.3579,384.9996 94.4999,384.9996 Z M87.25,384.6265 C87.662,384.6265 88,384.9635 88,385.3765 C88,385.7885 87.662,386.1265 87.25,386.1265 L82.75,386.1265 C82.338,386.1265 82,385.7885 82,385.3765 C82,384.9635 82.338,384.6265 82.75,384.6265 L87.25,384.6265 Z M90.25,380.5 C90.662,380.5 91,380.837 91,381.25 C91,381.663 90.662,382 90.25,382 L82.75,382 C82.338,382 82,381.663 82,381.25 C82,380.837 82.338,380.5 82.75,380.5 L90.25,380.5 Z" id="Domain"></path>
            </g>
        </g>
    </g>
</svg>