<?xml version="1.0" encoding="UTF-8"?>
<svg width="24px" height="24px" viewBox="0 0 24 24" version="1.1" xmlns="http://www.w3.org/2000/svg" xmlns:xlink="http://www.w3.org/1999/xlink">
    <!-- Generator: Sketch 59.1 (86144) - https://sketch.com -->
    <title>Fill 3</title>
    <desc>Created with Sketch.</desc>
    <g id="page-1" stroke="none" stroke-width="1" fill="none" fill-rule="evenodd">
        <g id="setting" transform="translate(-78.000000, -308.000000)" fill="#7E8EA8">
            <g id="nav">
                <path d="M81,330.5 C80.173,330.5 79.5,329.827 79.5,329 L79.5,314.75 L87.5,314.75 L87.5,329 C87.5,329.827 86.827,330.5 86,330.5 L81,330.5 Z M83.5,325 C84.328,325 85,325.671 85,326.5 C85,327.329 84.328,328 83.5,328 C82.672,328 82,327.329 82,326.5 C82,325.671 82.672,325 83.5,325 Z M86,309.5 C86.827,309.5 87.5,310.173 87.5,311 L87.5,313.25 L79.5,313.25 L79.5,311 C79.5,310.173 80.173,309.5 81,309.5 L86,309.5 Z M86,308 C87.65,308 89,309.35 89,311 L89,311 L89,329 C89,330.65 87.65,332 86,332 L86,332 L81,332 C79.35,332 78,330.65 78,329 L78,329 L78,311 C78,309.35 79.35,308 81,308 L81,308 Z M99,308 C100.65,308 102,309.35 102,311 L102,311 L102,329 C102,330.65 100.65,332 99,332 L99,332 L94,332 C92.35,332 91,330.65 91,329 L91,329 L91,311 C91,309.35 92.35,308 94,308 L94,308 Z M100.5,326.284 L92.5,326.284 L92.5,329 C92.5,329.827 93.173,330.5 94,330.5 L94,330.5 L99,330.5 C99.827,330.5 100.5,329.827 100.5,329 L100.5,329 L100.5,326.284 Z M99,309.5 L94,309.5 C93.173,309.5 92.5,310.173 92.5,311 L92.5,311 L92.5,324.784 L100.5,324.784 L100.5,311 C100.5,310.173 99.827,309.5 99,309.5 L99,309.5 Z" id="Fill-3"></path>
            </g>
        </g>
    </g>
</svg>